<?xml version="1.0" encoding="UTF-8" standalone="no"?>
<!DOCTYPE svg PUBLIC "-//W3C//DTD SVG 1.1//EN"
 "http://www.w3.org/Graphics/SVG/1.1/DTD/svg11.dtd">
<!-- Generated by graphviz version 12.1.2 (0)
 -->
<!-- Title: G Pages: 1 -->
<svg width="7552pt" height="6632pt"
 viewBox="0.00 0.00 7552.25 6632.00" xmlns="http://www.w3.org/2000/svg" xmlns:xlink="http://www.w3.org/1999/xlink">
<g id="graph0" class="graph" transform="scale(1 1) rotate(0) translate(4 6628)">
<title>G</title>
<polygon fill="white" stroke="none" points="-4,4 -4,-6628 7548.25,-6628 7548.25,4 -4,4"/>
<!-- 0 -->
<g id="node1" class="node">
<title>0</title>
<ellipse fill="none" stroke="red" stroke-width="2" cx="344.25" cy="-1080" rx="72" ry="72"/>
<text text-anchor="middle" x="344.25" y="-1057.08" font-family="Times,serif" font-size="64.00">0</text>
</g>
<!-- 16 -->
<g id="node2" class="node">
<title>16</title>
<ellipse fill="none" stroke="red" stroke-width="2" cx="344.25" cy="-1656" rx="72" ry="72"/>
<text text-anchor="middle" x="344.25" y="-1633.08" font-family="Times,serif" font-size="64.00">16</text>
</g>
<!-- 0&#45;&#45;16 -->
<g id="edge1" class="edge">
<title>0&#45;&#45;16</title>
<path fill="none" stroke="red" stroke-width="2" d="M344.25,-1152.37C344.25,-1263.11 344.25,-1473.37 344.25,-1583.93"/>
<text text-anchor="middle" x="172.12" y="-1383.1" font-family="Times,serif" font-size="64.00">0.0829086</text>
</g>
<!-- 4 -->
<g id="node3" class="node">
<title>4</title>
<ellipse fill="none" stroke="red" stroke-width="2" cx="992.25" cy="-720" rx="72" ry="72"/>
<text text-anchor="middle" x="992.25" y="-697.08" font-family="Times,serif" font-size="64.00">4</text>
</g>
<!-- 0&#45;&#45;4 -->
<g id="edge2" class="edge">
<title>0&#45;&#45;4</title>
<path fill="none" stroke="red" stroke-width="2" d="M407.56,-1044.83C531.6,-975.91 805.29,-823.86 929.16,-755.05"/>
<text text-anchor="middle" x="516.49" y="-914.89" font-family="Times,serif" font-size="64.00">0.101206</text>
</g>
<!-- 6 -->
<g id="node4" class="node">
<title>6</title>
<ellipse fill="none" stroke="red" stroke-width="2" cx="344.25" cy="-3528" rx="72" ry="72"/>
<text text-anchor="middle" x="344.25" y="-3505.08" font-family="Times,serif" font-size="64.00">6</text>
</g>
<!-- 0&#45;&#45;6 -->
<g id="edge3" class="edge">
<title>0&#45;&#45;6</title>
<path fill="none" stroke="red" stroke-width="2" d="M344.25,-1152.27C344.25,-1510.88 344.25,-3096.37 344.25,-3455.5"/>
<text text-anchor="middle" x="192.38" y="-2318.84" font-family="Times,serif" font-size="64.00">0.338428</text>
</g>
<!-- 8 -->
<g id="node11" class="node">
<title>8</title>
<ellipse fill="none" stroke="red" stroke-width="2" cx="3584.25" cy="-72" rx="72" ry="72"/>
<text text-anchor="middle" x="3584.25" y="-49.08" font-family="Times,serif" font-size="64.00">8</text>
</g>
<!-- 4&#45;&#45;8 -->
<g id="edge9" class="edge">
<title>4&#45;&#45;8</title>
<path fill="none" stroke="red" stroke-width="2" d="M1062.25,-702.5C1431.01,-610.31 3145.23,-181.75 3514.17,-89.52"/>
<text text-anchor="middle" x="2136.34" y="-410.96" font-family="Times,serif" font-size="64.00">0.370535</text>
</g>
<!-- 1 -->
<g id="node5" class="node">
<title>1</title>
<ellipse fill="none" stroke="red" stroke-width="2" cx="4520.25" cy="-2232" rx="72" ry="72"/>
<text text-anchor="middle" x="4520.25" y="-2209.08" font-family="Times,serif" font-size="64.00">1</text>
</g>
<!-- 11 -->
<g id="node6" class="node">
<title>11</title>
<ellipse fill="none" stroke="red" stroke-width="2" cx="4160.25" cy="-3024" rx="72" ry="72"/>
<text text-anchor="middle" x="4160.25" y="-3001.08" font-family="Times,serif" font-size="64.00">11</text>
</g>
<!-- 1&#45;&#45;11 -->
<g id="edge4" class="edge">
<title>1&#45;&#45;11</title>
<path fill="none" stroke="red" stroke-width="2" d="M4490.33,-2297.82C4422.54,-2446.95 4257.91,-2809.16 4190.14,-2958.23"/>
<text text-anchor="middle" x="4188.36" y="-2642.98" font-family="Times,serif" font-size="64.00">0.120735</text>
</g>
<!-- 3 -->
<g id="node7" class="node">
<title>3</title>
<ellipse fill="none" stroke="red" stroke-width="2" cx="5456.25" cy="-1872" rx="72" ry="72"/>
<text text-anchor="middle" x="5456.25" y="-1849.08" font-family="Times,serif" font-size="64.00">3</text>
</g>
<!-- 1&#45;&#45;3 -->
<g id="edge5" class="edge">
<title>1&#45;&#45;3</title>
<path fill="none" stroke="red" stroke-width="2" d="M4587.56,-2206.11C4759.95,-2139.81 5215.85,-1964.46 5388.6,-1898.02"/>
<text text-anchor="middle" x="4836.21" y="-2067.01" font-family="Times,serif" font-size="64.00">0.133766</text>
</g>
<!-- 15 -->
<g id="node16" class="node">
<title>15</title>
<ellipse fill="none" stroke="red" stroke-width="2" cx="3008.25" cy="-4536" rx="72" ry="72"/>
<text text-anchor="middle" x="3008.25" y="-4513.07" font-family="Times,serif" font-size="64.00">15</text>
</g>
<!-- 11&#45;&#45;15 -->
<g id="edge14" class="edge">
<title>11&#45;&#45;15</title>
<path fill="none" stroke="red" stroke-width="2" d="M4116.5,-3081.43C3934.02,-3320.93 3234.61,-4238.9 3052.05,-4478.52"/>
<text text-anchor="middle" x="3432.4" y="-3794.92" font-family="Times,serif" font-size="64.00">0.270186</text>
</g>
<!-- 7 -->
<g id="node10" class="node">
<title>7</title>
<ellipse fill="none" stroke="red" stroke-width="2" cx="4664.25" cy="-864" rx="72" ry="72"/>
<text text-anchor="middle" x="4664.25" y="-841.08" font-family="Times,serif" font-size="64.00">7</text>
</g>
<!-- 3&#45;&#45;7 -->
<g id="edge8" class="edge">
<title>3&#45;&#45;7</title>
<path fill="none" stroke="red" stroke-width="2" d="M5411.69,-1815.28C5272.68,-1638.36 4848.03,-1097.9 4708.9,-920.83"/>
<text text-anchor="middle" x="4908.42" y="-1383.01" font-family="Times,serif" font-size="64.00">0.175482</text>
</g>
<!-- 2 -->
<g id="node8" class="node">
<title>2</title>
<ellipse fill="none" stroke="red" stroke-width="2" cx="6248.25" cy="-936" rx="72" ry="72"/>
<text text-anchor="middle" x="6248.25" y="-913.08" font-family="Times,serif" font-size="64.00">2</text>
</g>
<!-- 2&#45;&#45;3 -->
<g id="edge6" class="edge">
<title>2&#45;&#45;3</title>
<path fill="none" stroke="red" stroke-width="2" d="M6201.66,-991.06C6061.32,-1156.92 5643.62,-1650.56 5503.03,-1816.72"/>
<text text-anchor="middle" x="5700.47" y="-1418.84" font-family="Times,serif" font-size="64.00">0.171708</text>
</g>
<!-- 5 -->
<g id="node9" class="node">
<title>5</title>
<ellipse fill="none" stroke="red" stroke-width="2" cx="7400.25" cy="-504" rx="72" ry="72"/>
<text text-anchor="middle" x="7400.25" y="-481.07" font-family="Times,serif" font-size="64.00">5</text>
</g>
<!-- 2&#45;&#45;5 -->
<g id="edge7" class="edge">
<title>2&#45;&#45;5</title>
<path fill="none" stroke="red" stroke-width="2" d="M6316.01,-910.59C6520.27,-833.99 7128.43,-605.93 7332.57,-529.38"/>
<text text-anchor="middle" x="6672.42" y="-734.93" font-family="Times,serif" font-size="64.00">0.174577</text>
</g>
<!-- 7&#45;&#45;8 -->
<g id="edge10" class="edge">
<title>7&#45;&#45;8</title>
<path fill="none" stroke="red" stroke-width="2" d="M4605.8,-821.14C4417.84,-683.3 3830.28,-252.42 3642.54,-114.75"/>
<text text-anchor="middle" x="3972.3" y="-482.89" font-family="Times,serif" font-size="64.00">0.186327</text>
</g>
<!-- 9 -->
<g id="node12" class="node">
<title>9</title>
<ellipse fill="none" stroke="red" stroke-width="2" cx="5960.25" cy="-3384" rx="72" ry="72"/>
<text text-anchor="middle" x="5960.25" y="-3361.08" font-family="Times,serif" font-size="64.00">9</text>
</g>
<!-- 9&#45;&#45;11 -->
<g id="edge12" class="edge">
<title>9&#45;&#45;11</title>
<path fill="none" stroke="red" stroke-width="2" d="M5889.41,-3369.83C5601.36,-3312.22 4519.63,-3095.88 4231.26,-3038.2"/>
<text text-anchor="middle" x="4908.46" y="-3218.97" font-family="Times,serif" font-size="64.00">0.250731</text>
</g>
<!-- 13 -->
<g id="node13" class="node">
<title>13</title>
<ellipse fill="none" stroke="red" stroke-width="2" cx="7472.25" cy="-4104" rx="72" ry="72"/>
<text text-anchor="middle" x="7472.25" y="-4081.08" font-family="Times,serif" font-size="64.00">13</text>
</g>
<!-- 9&#45;&#45;13 -->
<g id="edge11" class="edge">
<title>9&#45;&#45;13</title>
<path fill="none" stroke="red" stroke-width="2" d="M6025.7,-3415.17C6274.4,-3533.59 7159.11,-3954.89 7407.17,-4073.01"/>
<text text-anchor="middle" x="6564.56" y="-3759.04" font-family="Times,serif" font-size="64.00">0.232305</text>
</g>
<!-- 10 -->
<g id="node14" class="node">
<title>10</title>
<ellipse fill="none" stroke="red" stroke-width="2" cx="6608.25" cy="-6552" rx="72" ry="72"/>
<text text-anchor="middle" x="6608.25" y="-6529.07" font-family="Times,serif" font-size="64.00">10</text>
</g>
<!-- 12 -->
<g id="node15" class="node">
<title>12</title>
<ellipse fill="none" stroke="red" stroke-width="2" cx="6536.25" cy="-5256" rx="72" ry="72"/>
<text text-anchor="middle" x="6536.25" y="-5233.07" font-family="Times,serif" font-size="64.00">12</text>
</g>
<!-- 10&#45;&#45;12 -->
<g id="edge13" class="edge">
<title>10&#45;&#45;12</title>
<path fill="none" stroke="red" stroke-width="2" d="M6604.25,-6480.01C6591.65,-6253.17 6552.86,-5554.91 6540.25,-5328.02"/>
<text text-anchor="middle" x="6420.38" y="-5918.97" font-family="Times,serif" font-size="64.00">0.176777</text>
</g>
<!-- 12&#45;&#45;13 -->
<g id="edge15" class="edge">
<title>12&#45;&#45;13</title>
<path fill="none" stroke="red" stroke-width="2" d="M6581.71,-5200.05C6740.33,-5004.83 7268.17,-4355.18 7426.79,-4159.96"/>
<text text-anchor="middle" x="6852.37" y="-4694.95" font-family="Times,serif" font-size="64.00">0.215384</text>
</g>
<!-- 19 -->
<g id="node18" class="node">
<title>19</title>
<ellipse fill="none" stroke="red" stroke-width="2" cx="3584.25" cy="-5040" rx="72" ry="72"/>
<text text-anchor="middle" x="3584.25" y="-5017.07" font-family="Times,serif" font-size="64.00">19</text>
</g>
<!-- 15&#45;&#45;19 -->
<g id="edge17" class="edge">
<title>15&#45;&#45;19</title>
<path fill="none" stroke="red" stroke-width="2" d="M3062.7,-4583.64C3172.63,-4679.83 3419.95,-4896.24 3529.85,-4992.4"/>
<text text-anchor="middle" x="3164.65" y="-4802.97" font-family="Times,serif" font-size="64.00">0.10613</text>
</g>
<!-- 14 -->
<g id="node17" class="node">
<title>14</title>
<ellipse fill="none" stroke="red" stroke-width="2" cx="2216.25" cy="-5760" rx="72" ry="72"/>
<text text-anchor="middle" x="2216.25" y="-5737.07" font-family="Times,serif" font-size="64.00">14</text>
</g>
<!-- 14&#45;&#45;19 -->
<g id="edge16" class="edge">
<title>14&#45;&#45;19</title>
<path fill="none" stroke="red" stroke-width="2" d="M2280.4,-5726.24C2510.18,-5605.3 3290.68,-5194.51 3520.24,-5073.69"/>
<text text-anchor="middle" x="2748.44" y="-5414.91" font-family="Times,serif" font-size="64.00">0.214316</text>
</g>
<!-- 17 -->
<g id="node19" class="node">
<title>17</title>
<ellipse fill="none" stroke="red" stroke-width="2" cx="4520.25" cy="-5688" rx="72" ry="72"/>
<text text-anchor="middle" x="4520.25" y="-5665.07" font-family="Times,serif" font-size="64.00">17</text>
</g>
<!-- 18 -->
<g id="node20" class="node">
<title>18</title>
<ellipse fill="none" stroke="red" stroke-width="2" cx="3800.25" cy="-5040" rx="72" ry="72"/>
<text text-anchor="middle" x="3800.25" y="-5017.07" font-family="Times,serif" font-size="64.00">18</text>
</g>
<!-- 17&#45;&#45;18 -->
<g id="edge18" class="edge">
<title>17&#45;&#45;18</title>
<path fill="none" stroke="red" stroke-width="2" d="M4466.43,-5639.56C4332.9,-5519.39 3987.6,-5208.61 3854.07,-5088.44"/>
<text text-anchor="middle" x="4028.62" y="-5378.95" font-family="Times,serif" font-size="64.00">0.13935</text>
</g>
<!-- 18&#45;&#45;19 -->
<g id="edge19" class="edge">
<title>18&#45;&#45;19</title>
<path fill="none" stroke="red" stroke-width="2" d="M3728.02,-5040C3704.97,-5040 3679.46,-5040 3656.41,-5040"/>
<text text-anchor="middle" x="3520.09" y="-5054.95" font-family="Times,serif" font-size="64.00">0.0269637</text>
</g>
</g>
</svg>
