<svg width="305" height="90" viewBox="0 0 305 90" fill="none" xmlns="http://www.w3.org/2000/svg">
<rect width="305" height="90" rx="20" fill="#AAB7D0"/>
<path d="M273 28C273 31.3137 264.941 34 255 34C245.059 34 237 31.3137 237 28M273 28C273 24.6863 264.941 22 255 22C245.059 22 237 24.6863 237 28M273 28V56C273 59.32 265 62 255 62C245 62 237 59.32 237 56V28M273 42C273 45.32 265 48 255 48C245 48 237 45.32 237 42" stroke="#1E1E1E" stroke-width="4" stroke-linecap="round" stroke-linejoin="round"/>
<path d="M74.3333 52.3333V17.125H31.8333V52.3333H74.3333ZM74.3333 52.3333H94.1666V38.7917L85.6666 30.6667H74.3333V52.3333ZM51.6666 59.1042C51.6666 62.8436 48.4953 65.875 44.5833 65.875C40.6712 65.875 37.4999 62.8436 37.4999 59.1042C37.4999 55.3647 40.6712 52.3333 44.5833 52.3333C48.4953 52.3333 51.6666 55.3647 51.6666 59.1042ZM88.4999 59.1042C88.4999 62.8436 85.3286 65.875 81.4166 65.875C77.5046 65.875 74.3333 62.8436 74.3333 59.1042C74.3333 55.3647 77.5046 52.3333 81.4166 52.3333C85.3286 52.3333 88.4999 55.3647 88.4999 59.1042Z" stroke="#1E1E1E" stroke-width="4" stroke-linecap="round" stroke-linejoin="round"/>
<path d="M134.219 53H130.379V31.24H134.219V53ZM144.638 49.768C147.113 49.768 148.35 48.8507 148.35 47.016C148.35 46.2693 148.158 45.6827 147.774 45.256C147.412 44.8293 146.729 44.456 145.726 44.136L143.102 43.272C139.966 42.248 138.398 40.1893 138.398 37.096C138.398 35.304 138.953 33.832 140.062 32.68C141.193 31.5067 142.953 30.92 145.342 30.92C146.345 30.92 147.337 31.0373 148.318 31.272C149.3 31.4853 150.345 31.8373 151.454 32.328L150.27 35.624C149.246 35.2187 148.372 34.9307 147.646 34.76C146.942 34.568 146.217 34.472 145.47 34.472C144.489 34.472 143.71 34.6533 143.134 35.016C142.58 35.3573 142.302 35.9867 142.302 36.904C142.302 37.5867 142.494 38.152 142.878 38.6C143.284 39.0267 143.945 39.3893 144.862 39.688L147.486 40.552C149.065 41.0853 150.249 41.864 151.038 42.888C151.849 43.8907 152.254 45.224 152.254 46.888C152.254 48.808 151.646 50.3653 150.43 51.56C149.214 52.7333 147.305 53.32 144.702 53.32C143.678 53.32 142.612 53.2027 141.502 52.968C140.414 52.712 139.22 52.2853 137.918 51.688L139.102 48.392C140.297 48.904 141.31 49.2667 142.142 49.48C142.996 49.672 143.828 49.768 144.638 49.768ZM168.273 49.32V53H154.353V49.64L163.441 34.92H154.673V31.24H167.953V34.6L158.865 49.32H168.273ZM176.298 31.24L182.378 46.12L188.426 31.24H192.618V53H188.938V44.68L189.418 37.064L184.01 50.44H180.586L175.306 37.032L175.786 44.68V53H172.106V31.24H176.298Z" fill="black"/>
</svg>
